<?xml version="1.0" standalone="no"?>
<!DOCTYPE svg PUBLIC "-//W3C//DTD SVG 1.1//EN" "http://www.w3.org/Graphics/SVG/1.1/DTD/svg11.dtd">
<svg xmlns="http://www.w3.org/2000/svg" xmlns:xlink="http://www.w3.org/1999/xlink" width="571.5" zoomAndPan="magnify" viewBox="0 0 571.5 342.749994" height="342.75" preserveAspectRatio="xMidYMid meet" version="1.0"><defs><g/><clipPath id="f2d84fe1cc"><path d="M 75.226562 92.867188 L 195 92.867188 L 195 216.617188 L 75.226562 216.617188 Z M 75.226562 92.867188 " clip-rule="nonzero"/></clipPath><clipPath id="c18c57e3a9"><path d="M 317.496094 92.550781 L 390.246094 92.550781 L 390.246094 187.050781 L 317.496094 187.050781 Z M 317.496094 92.550781 " clip-rule="nonzero"/></clipPath><clipPath id="8448aeb14e"><path d="M 231 97 L 298.960938 97 L 298.960938 129 L 231 129 Z M 231 97 " clip-rule="nonzero"/></clipPath><clipPath id="0a5f7b875a"><path d="M 223 151 L 298.960938 151 L 298.960938 192.890625 L 223 192.890625 Z M 223 151 " clip-rule="nonzero"/></clipPath><clipPath id="a6ba780270"><path d="M 194.710938 87.140625 L 268 87.140625 L 268 182 L 194.710938 182 Z M 194.710938 87.140625 " clip-rule="nonzero"/></clipPath><clipPath id="9d70b69ef0"><path d="M 464 79 L 478 79 L 478 126.308594 L 464 126.308594 Z M 464 79 " clip-rule="nonzero"/></clipPath><clipPath id="449adb28a6"><path d="M 447.1875 96 L 495 96 L 495 110 L 447.1875 110 Z M 447.1875 96 " clip-rule="nonzero"/></clipPath><clipPath id="5810b3e55e"><path d="M 467 75.308594 L 480 75.308594 L 480 124 L 467 124 Z M 467 75.308594 " clip-rule="nonzero"/></clipPath><clipPath id="9d7a62a903"><path d="M 449 93 L 495.9375 93 L 495.9375 107 L 449 107 Z M 449 93 " clip-rule="nonzero"/></clipPath><clipPath id="6d208c1f22"><path d="M 414 80 L 428 80 L 428 127.363281 L 414 127.363281 Z M 414 80 " clip-rule="nonzero"/></clipPath><clipPath id="e71cf5f4a5"><path d="M 397.214844 97 L 445 97 L 445 111 L 397.214844 111 Z M 397.214844 97 " clip-rule="nonzero"/></clipPath><clipPath id="ac005c2b31"><path d="M 417 76.363281 L 430 76.363281 L 430 125 L 417 125 Z M 417 76.363281 " clip-rule="nonzero"/></clipPath><clipPath id="41cdf0bcbd"><path d="M 399 94 L 445.964844 94 L 445.964844 108 L 399 108 Z M 399 94 " clip-rule="nonzero"/></clipPath></defs><g clip-path="url(#f2d84fe1cc)"><path fill="#000000" d="M 105.691406 133.097656 L 75.960938 212.617188 C 75.238281 214.554688 76.671875 216.617188 78.742188 216.617188 L 104.027344 216.617188 C 105.285156 216.617188 106.402344 215.824219 106.824219 214.640625 L 113.882812 194.675781 L 122.429688 169.101562 C 122.628906 168.496094 122.632812 167.84375 122.433594 167.242188 L 111.289062 133.214844 C 110.414062 130.550781 106.671875 130.472656 105.691406 133.097656 Z M 147.671875 92.863281 L 125.113281 92.863281 C 123.074219 92.863281 121.640625 94.875 122.308594 96.796875 L 134.980469 133.285156 L 134.996094 133.234375 L 155.78125 194.675781 L 162.988281 214.660156 C 163.414062 215.832031 164.53125 216.617188 165.78125 216.617188 L 191.695312 216.617188 C 193.765625 216.617188 195.199219 214.554688 194.476562 212.617188 L 150.449219 94.789062 C 150.015625 93.632812 148.910156 92.863281 147.671875 92.863281 " fill-opacity="1" fill-rule="nonzero"/></g><g clip-path="url(#c18c57e3a9)"><path fill="#000000" d="M 340.15625 170.664062 L 390.246094 170.664062 L 390.246094 187.039062 L 327.003906 187.039062 Z M 317.496094 183.984375 L 317.496094 155.972656 L 340.011719 155.972656 Z M 317.496094 131.613281 L 381.417969 131.613281 L 381.417969 147.984375 L 317.496094 147.984375 Z M 317.496094 92.558594 L 390.246094 92.558594 L 390.246094 108.933594 L 317.496094 108.933594 Z M 317.496094 92.558594 " fill-opacity="1" fill-rule="evenodd"/></g><g clip-path="url(#8448aeb14e)"><path fill="#000000" d="M 280.019531 98.5 C 289.492188 105.996094 296.324219 116.695312 298.921875 128.957031 L 274.867188 128.957031 C 270.511719 118.015625 259.84375 110.28125 247.375 110.28125 C 241.742188 110.28125 236.507812 111.84375 231.992188 114.570312 C 234.390625 110.804688 237.304688 107.636719 240.664062 105.074219 C 250.371094 97.820312 263.597656 95.574219 280.019531 98.5 Z M 280.019531 98.5 " fill-opacity="1" fill-rule="nonzero"/></g><g clip-path="url(#0a5f7b875a)"><path fill="#004aad" d="M 298.960938 151.078125 C 293.886719 174.960938 272.75 192.875 247.414062 192.875 C 238.902344 192.875 230.914062 190.871094 223.800781 187.265625 C 224 187.265625 224.199219 187.265625 224.398438 187.265625 C 236.585938 187.265625 246.417969 184.898438 254.328125 180.171875 C 264.039062 174.320312 270.789062 164.78125 274.945312 151.078125 Z M 298.960938 151.078125 " fill-opacity="1" fill-rule="nonzero"/></g><g clip-path="url(#a6ba780270)"><path fill="#000000" d="M 213.769531 180.691406 C 202.144531 170.992188 194.710938 156.367188 194.710938 140.015625 C 194.710938 110.804688 218.285156 87.160156 247.414062 87.160156 C 254.6875 87.160156 261.601562 88.640625 267.875 91.289062 C 255.6875 91.128906 245.21875 94.171875 237.144531 100.304688 C 228.433594 106.914062 222.601562 116.734375 219.683594 129.597656 C 218.484375 132.84375 217.804688 136.332031 217.804688 139.976562 C 217.804688 156.367188 231.074219 169.671875 247.414062 169.671875 C 252.210938 169.671875 256.726562 168.550781 260.722656 166.503906 C 251.292969 178.648438 236.308594 182.976562 213.769531 180.691406 Z M 213.769531 180.691406 " fill-opacity="1" fill-rule="nonzero"/></g><g clip-path="url(#9d70b69ef0)"><path fill="#000000" d="M 464.730469 122.21875 L 464.730469 83.742188 C 464.730469 83.4375 464.761719 83.136719 464.820312 82.839844 C 464.878906 82.539062 464.964844 82.25 465.082031 81.972656 C 465.195312 81.691406 465.339844 81.421875 465.507812 81.171875 C 465.675781 80.917969 465.863281 80.683594 466.078125 80.46875 C 466.292969 80.253906 466.523438 80.0625 466.777344 79.894531 C 467.027344 79.726562 467.292969 79.582031 467.574219 79.464844 C 467.851562 79.351562 468.140625 79.261719 468.4375 79.203125 C 468.734375 79.144531 469.03125 79.113281 469.335938 79.113281 L 472.53125 79.113281 C 472.832031 79.113281 473.132812 79.144531 473.429688 79.203125 C 473.726562 79.261719 474.015625 79.351562 474.292969 79.464844 C 474.574219 79.582031 474.835938 79.726562 475.089844 79.894531 C 475.339844 80.0625 475.574219 80.253906 475.785156 80.46875 C 476 80.683594 476.191406 80.917969 476.359375 81.171875 C 476.527344 81.421875 476.667969 81.691406 476.785156 81.972656 C 476.898438 82.25 476.988281 82.539062 477.046875 82.839844 C 477.105469 83.136719 477.136719 83.4375 477.136719 83.742188 L 477.136719 122.21875 C 477.136719 122.523438 477.105469 122.824219 477.046875 123.121094 C 476.988281 123.417969 476.898438 123.707031 476.785156 123.988281 C 476.667969 124.269531 476.527344 124.535156 476.359375 124.789062 C 476.191406 125.042969 476 125.277344 475.785156 125.492188 C 475.574219 125.707031 475.339844 125.898438 475.089844 126.066406 C 474.835938 126.234375 474.574219 126.378906 474.292969 126.492188 C 474.015625 126.609375 473.726562 126.699219 473.429688 126.757812 C 473.132812 126.816406 472.832031 126.84375 472.53125 126.84375 L 469.335938 126.84375 C 469.03125 126.84375 468.734375 126.816406 468.4375 126.757812 C 468.140625 126.699219 467.851562 126.609375 467.574219 126.492188 C 467.292969 126.378906 467.027344 126.234375 466.777344 126.066406 C 466.523438 125.898438 466.292969 125.707031 466.078125 125.492188 C 465.863281 125.277344 465.675781 125.042969 465.507812 124.789062 C 465.339844 124.535156 465.195312 124.269531 465.082031 123.988281 C 464.964844 123.707031 464.878906 123.417969 464.820312 123.121094 C 464.761719 122.824219 464.730469 122.523438 464.730469 122.21875 Z M 464.730469 122.21875 " fill-opacity="1" fill-rule="nonzero"/></g><g clip-path="url(#449adb28a6)"><path fill="#000000" d="M 490.074219 109.214844 L 451.789062 109.214844 C 451.488281 109.214844 451.1875 109.183594 450.894531 109.125 C 450.597656 109.066406 450.308594 108.976562 450.027344 108.863281 C 449.75 108.746094 449.484375 108.601562 449.234375 108.433594 C 448.980469 108.265625 448.75 108.074219 448.535156 107.859375 C 448.320312 107.644531 448.128906 107.410156 447.964844 107.15625 C 447.796875 106.90625 447.652344 106.636719 447.539062 106.355469 C 447.421875 106.078125 447.335938 105.789062 447.277344 105.488281 C 447.214844 105.191406 447.1875 104.890625 447.1875 104.585938 L 447.1875 101.375 C 447.1875 101.070312 447.214844 100.769531 447.277344 100.472656 C 447.335938 100.171875 447.421875 99.882812 447.539062 99.601562 C 447.652344 99.320312 447.796875 99.054688 447.964844 98.804688 C 448.128906 98.550781 448.320312 98.316406 448.535156 98.101562 C 448.75 97.886719 448.980469 97.695312 449.234375 97.527344 C 449.484375 97.359375 449.75 97.214844 450.027344 97.097656 C 450.308594 96.984375 450.597656 96.894531 450.894531 96.835938 C 451.1875 96.777344 451.488281 96.746094 451.789062 96.746094 L 490.074219 96.746094 C 490.378906 96.746094 490.675781 96.777344 490.972656 96.835938 C 491.269531 96.894531 491.558594 96.984375 491.835938 97.097656 C 492.117188 97.214844 492.382812 97.359375 492.632812 97.527344 C 492.882812 97.695312 493.117188 97.886719 493.332031 98.101562 C 493.542969 98.316406 493.734375 98.550781 493.902344 98.804688 C 494.070312 99.054688 494.210938 99.320312 494.328125 99.601562 C 494.445312 99.882812 494.53125 100.171875 494.589844 100.472656 C 494.648438 100.769531 494.679688 101.070312 494.679688 101.375 L 494.679688 104.585938 C 494.679688 104.890625 494.648438 105.191406 494.589844 105.488281 C 494.53125 105.789062 494.445312 106.078125 494.328125 106.355469 C 494.210938 106.636719 494.070312 106.90625 493.902344 107.15625 C 493.734375 107.410156 493.542969 107.644531 493.332031 107.859375 C 493.117188 108.074219 492.882812 108.265625 492.632812 108.433594 C 492.382812 108.601562 492.117188 108.746094 491.835938 108.863281 C 491.558594 108.976562 491.269531 109.066406 490.972656 109.125 C 490.675781 109.183594 490.378906 109.214844 490.074219 109.214844 Z M 490.074219 109.214844 " fill-opacity="1" fill-rule="nonzero"/></g><g clip-path="url(#5810b3e55e)"><path fill="#004aad" d="M 467.210938 119.011719 L 467.210938 80.535156 C 467.210938 80.230469 467.242188 79.929688 467.300781 79.632812 C 467.359375 79.335938 467.445312 79.046875 467.5625 78.765625 C 467.675781 78.484375 467.820312 78.21875 467.988281 77.964844 C 468.15625 77.710938 468.347656 77.480469 468.558594 77.265625 C 468.773438 77.050781 469.007812 76.855469 469.257812 76.6875 C 469.507812 76.519531 469.773438 76.378906 470.054688 76.261719 C 470.332031 76.144531 470.621094 76.058594 470.917969 75.996094 C 471.214844 75.9375 471.511719 75.910156 471.816406 75.910156 L 475.011719 75.910156 C 475.3125 75.910156 475.613281 75.9375 475.910156 75.996094 C 476.207031 76.058594 476.496094 76.144531 476.773438 76.261719 C 477.054688 76.378906 477.320312 76.519531 477.570312 76.6875 C 477.820312 76.855469 478.054688 77.050781 478.265625 77.265625 C 478.480469 77.480469 478.671875 77.710938 478.839844 77.964844 C 479.007812 78.21875 479.148438 78.484375 479.265625 78.765625 C 479.382812 79.046875 479.46875 79.335938 479.527344 79.632812 C 479.585938 79.929688 479.617188 80.230469 479.617188 80.535156 L 479.617188 119.011719 C 479.617188 119.316406 479.585938 119.617188 479.527344 119.914062 C 479.46875 120.214844 479.382812 120.503906 479.265625 120.785156 C 479.148438 121.0625 479.007812 121.332031 478.839844 121.582031 C 478.671875 121.835938 478.480469 122.070312 478.265625 122.285156 C 478.054688 122.5 477.820312 122.691406 477.570312 122.859375 C 477.320312 123.027344 477.054688 123.171875 476.773438 123.289062 C 476.496094 123.402344 476.207031 123.492188 475.910156 123.550781 C 475.613281 123.609375 475.3125 123.640625 475.011719 123.640625 L 471.816406 123.640625 C 471.511719 123.640625 471.214844 123.609375 470.917969 123.550781 C 470.621094 123.492188 470.332031 123.402344 470.054688 123.289062 C 469.773438 123.171875 469.507812 123.027344 469.257812 122.859375 C 469.007812 122.691406 468.773438 122.5 468.558594 122.285156 C 468.347656 122.070312 468.15625 121.835938 467.988281 121.582031 C 467.820312 121.332031 467.675781 121.0625 467.5625 120.785156 C 467.445312 120.503906 467.359375 120.214844 467.300781 119.914062 C 467.242188 119.617188 467.210938 119.316406 467.210938 119.011719 Z M 467.210938 119.011719 " fill-opacity="1" fill-rule="nonzero"/></g><g clip-path="url(#9d7a62a903)"><path fill="#004aad" d="M 492.554688 106.007812 L 454.273438 106.007812 C 453.96875 106.007812 453.671875 105.976562 453.375 105.917969 C 453.078125 105.859375 452.789062 105.773438 452.511719 105.65625 C 452.230469 105.539062 451.964844 105.398438 451.714844 105.226562 C 451.460938 105.058594 451.230469 104.867188 451.015625 104.652344 C 450.800781 104.4375 450.613281 104.203125 450.445312 103.953125 C 450.277344 103.699219 450.132812 103.433594 450.019531 103.152344 C 449.902344 102.871094 449.816406 102.582031 449.757812 102.285156 C 449.699219 101.984375 449.667969 101.683594 449.667969 101.378906 L 449.667969 98.167969 C 449.667969 97.863281 449.699219 97.5625 449.757812 97.265625 C 449.816406 96.96875 449.902344 96.679688 450.019531 96.398438 C 450.132812 96.117188 450.277344 95.851562 450.445312 95.597656 C 450.613281 95.34375 450.800781 95.109375 451.015625 94.894531 C 451.230469 94.679688 451.460938 94.488281 451.714844 94.320312 C 451.964844 94.152344 452.230469 94.007812 452.511719 93.894531 C 452.789062 93.777344 453.078125 93.6875 453.375 93.628906 C 453.671875 93.570312 453.96875 93.539062 454.273438 93.539062 L 492.554688 93.539062 C 492.859375 93.539062 493.15625 93.570312 493.453125 93.628906 C 493.75 93.6875 494.039062 93.777344 494.316406 93.894531 C 494.597656 94.007812 494.863281 94.152344 495.113281 94.320312 C 495.363281 94.488281 495.597656 94.679688 495.8125 94.894531 C 496.023438 95.109375 496.214844 95.34375 496.382812 95.597656 C 496.550781 95.851562 496.695312 96.117188 496.808594 96.398438 C 496.925781 96.679688 497.011719 96.96875 497.070312 97.265625 C 497.128906 97.5625 497.160156 97.863281 497.160156 98.167969 L 497.160156 101.378906 C 497.160156 101.683594 497.128906 101.984375 497.070312 102.285156 C 497.011719 102.582031 496.925781 102.871094 496.808594 103.152344 C 496.695312 103.433594 496.550781 103.699219 496.382812 103.953125 C 496.214844 104.203125 496.023438 104.4375 495.8125 104.652344 C 495.597656 104.867188 495.363281 105.058594 495.113281 105.226562 C 494.863281 105.398438 494.597656 105.539062 494.316406 105.65625 C 494.039062 105.773438 493.75 105.859375 493.453125 105.917969 C 493.15625 105.976562 492.859375 106.007812 492.554688 106.007812 Z M 492.554688 106.007812 " fill-opacity="1" fill-rule="nonzero"/></g><g fill="#000000" fill-opacity="1"><g transform="translate(75.224955, 243.752181)"><g><path d="M 0.5 0 L 5.15625 -13.015625 L 7.921875 -13.015625 L 12.578125 0 L 9.96875 0 L 8.90625 -3.015625 L 4.21875 -3.015625 L 3.125 0 Z M 4.8125 -5.3125 L 8.265625 -5.3125 L 6.546875 -10.46875 Z M 4.8125 -5.3125 "/></g></g></g><g fill="#000000" fill-opacity="1"><g transform="translate(88.302049, 243.752181)"><g><path d="M 6.765625 -13.1875 C 7.734375 -13.1875 8.597656 -12.988281 9.359375 -12.59375 C 10.128906 -12.207031 10.75 -11.675781 11.21875 -11 C 11.695312 -10.320312 11.976562 -9.554688 12.0625 -8.703125 L 9.3125 -8.703125 C 9.226562 -9.148438 9.070312 -9.550781 8.84375 -9.90625 C 8.625 -10.257812 8.332031 -10.535156 7.96875 -10.734375 C 7.613281 -10.929688 7.179688 -11.03125 6.671875 -11.03125 C 6.066406 -11.03125 5.546875 -10.882812 5.109375 -10.59375 C 4.671875 -10.300781 4.332031 -9.828125 4.09375 -9.171875 C 3.863281 -8.515625 3.75 -7.648438 3.75 -6.578125 C 3.75 -4.960938 4.007812 -3.789062 4.53125 -3.0625 C 5.050781 -2.34375 5.765625 -1.984375 6.671875 -1.984375 C 7.179688 -1.984375 7.613281 -2.097656 7.96875 -2.328125 C 8.332031 -2.554688 8.625 -2.859375 8.84375 -3.234375 C 9.070312 -3.617188 9.226562 -4.039062 9.3125 -4.5 L 12.0625 -4.5 C 11.976562 -3.882812 11.828125 -3.296875 11.609375 -2.734375 C 11.390625 -2.171875 11.070312 -1.671875 10.65625 -1.234375 C 10.25 -0.796875 9.722656 -0.445312 9.078125 -0.1875 C 8.441406 0.0625 7.671875 0.1875 6.765625 0.1875 C 5.546875 0.1875 4.492188 -0.09375 3.609375 -0.65625 C 2.734375 -1.226562 2.054688 -2.023438 1.578125 -3.046875 C 1.097656 -4.066406 0.859375 -5.253906 0.859375 -6.609375 C 0.859375 -7.984375 1.09375 -9.160156 1.5625 -10.140625 C 2.039062 -11.117188 2.722656 -11.867188 3.609375 -12.390625 C 4.492188 -12.921875 5.546875 -13.1875 6.765625 -13.1875 Z M 6.765625 -13.1875 "/></g></g></g><g fill="#000000" fill-opacity="1"><g transform="translate(101.226136, 243.752181)"><g><path d="M 6.765625 -13.1875 C 7.734375 -13.1875 8.597656 -12.988281 9.359375 -12.59375 C 10.128906 -12.207031 10.75 -11.675781 11.21875 -11 C 11.695312 -10.320312 11.976562 -9.554688 12.0625 -8.703125 L 9.3125 -8.703125 C 9.226562 -9.148438 9.070312 -9.550781 8.84375 -9.90625 C 8.625 -10.257812 8.332031 -10.535156 7.96875 -10.734375 C 7.613281 -10.929688 7.179688 -11.03125 6.671875 -11.03125 C 6.066406 -11.03125 5.546875 -10.882812 5.109375 -10.59375 C 4.671875 -10.300781 4.332031 -9.828125 4.09375 -9.171875 C 3.863281 -8.515625 3.75 -7.648438 3.75 -6.578125 C 3.75 -4.960938 4.007812 -3.789062 4.53125 -3.0625 C 5.050781 -2.34375 5.765625 -1.984375 6.671875 -1.984375 C 7.179688 -1.984375 7.613281 -2.097656 7.96875 -2.328125 C 8.332031 -2.554688 8.625 -2.859375 8.84375 -3.234375 C 9.070312 -3.617188 9.226562 -4.039062 9.3125 -4.5 L 12.0625 -4.5 C 11.976562 -3.882812 11.828125 -3.296875 11.609375 -2.734375 C 11.390625 -2.171875 11.070312 -1.671875 10.65625 -1.234375 C 10.25 -0.796875 9.722656 -0.445312 9.078125 -0.1875 C 8.441406 0.0625 7.671875 0.1875 6.765625 0.1875 C 5.546875 0.1875 4.492188 -0.09375 3.609375 -0.65625 C 2.734375 -1.226562 2.054688 -2.023438 1.578125 -3.046875 C 1.097656 -4.066406 0.859375 -5.253906 0.859375 -6.609375 C 0.859375 -7.984375 1.09375 -9.160156 1.5625 -10.140625 C 2.039062 -11.117188 2.722656 -11.867188 3.609375 -12.390625 C 4.492188 -12.921875 5.546875 -13.1875 6.765625 -13.1875 Z M 6.765625 -13.1875 "/></g></g></g><g fill="#000000" fill-opacity="1"><g transform="translate(114.150223, 243.752181)"><g><path d="M 1.453125 0 L 1.453125 -13.015625 L 10.390625 -13.015625 L 10.390625 -10.796875 L 4.09375 -10.796875 L 4.09375 -7.640625 L 9.5625 -7.640625 L 9.5625 -5.46875 L 4.078125 -5.46875 L 4.078125 -2.234375 L 10.484375 -2.234375 L 10.484375 0 Z M 1.453125 0 "/></g></g></g><g fill="#000000" fill-opacity="1"><g transform="translate(125.571299, 243.752181)"><g><path d="M 6.34375 0.1875 C 5.695312 0.1875 5.066406 0.101562 4.453125 -0.0625 C 3.835938 -0.226562 3.273438 -0.472656 2.765625 -0.796875 C 2.253906 -1.117188 1.832031 -1.519531 1.5 -2 C 1.164062 -2.488281 0.96875 -3.0625 0.90625 -3.71875 L 3.59375 -3.71875 C 3.675781 -3.320312 3.84375 -2.988281 4.09375 -2.71875 C 4.351562 -2.445312 4.675781 -2.238281 5.0625 -2.09375 C 5.445312 -1.945312 5.875 -1.875 6.34375 -1.875 C 6.820312 -1.875 7.257812 -1.929688 7.65625 -2.046875 C 8.050781 -2.171875 8.367188 -2.351562 8.609375 -2.59375 C 8.847656 -2.84375 8.96875 -3.148438 8.96875 -3.515625 C 8.96875 -3.847656 8.867188 -4.117188 8.671875 -4.328125 C 8.472656 -4.535156 8.207031 -4.707031 7.875 -4.84375 C 7.550781 -4.976562 7.179688 -5.085938 6.765625 -5.171875 L 4.515625 -5.625 C 3.523438 -5.8125 2.742188 -6.203125 2.171875 -6.796875 C 1.597656 -7.390625 1.300781 -8.1875 1.28125 -9.1875 C 1.269531 -10 1.484375 -10.703125 1.921875 -11.296875 C 2.367188 -11.898438 2.972656 -12.363281 3.734375 -12.6875 C 4.492188 -13.007812 5.34375 -13.171875 6.28125 -13.171875 C 7.40625 -13.171875 8.347656 -12.992188 9.109375 -12.640625 C 9.878906 -12.296875 10.460938 -11.820312 10.859375 -11.21875 C 11.253906 -10.625 11.457031 -9.960938 11.46875 -9.234375 L 8.84375 -9.234375 C 8.789062 -9.691406 8.648438 -10.054688 8.421875 -10.328125 C 8.191406 -10.597656 7.898438 -10.789062 7.546875 -10.90625 C 7.191406 -11.03125 6.785156 -11.09375 6.328125 -11.09375 C 5.984375 -11.09375 5.664062 -11.050781 5.375 -10.96875 C 5.09375 -10.894531 4.851562 -10.785156 4.65625 -10.640625 C 4.457031 -10.503906 4.300781 -10.335938 4.1875 -10.140625 C 4.082031 -9.953125 4.03125 -9.738281 4.03125 -9.5 C 4.03125 -9.113281 4.15625 -8.800781 4.40625 -8.5625 C 4.65625 -8.332031 5.128906 -8.144531 5.828125 -8 L 8.0625 -7.546875 C 8.851562 -7.390625 9.484375 -7.15625 9.953125 -6.84375 C 10.429688 -6.539062 10.785156 -6.195312 11.015625 -5.8125 C 11.253906 -5.425781 11.410156 -5.035156 11.484375 -4.640625 C 11.554688 -4.242188 11.59375 -3.875 11.59375 -3.53125 C 11.59375 -2.832031 11.375 -2.203125 10.9375 -1.640625 C 10.5 -1.078125 9.882812 -0.628906 9.09375 -0.296875 C 8.3125 0.0234375 7.394531 0.1875 6.34375 0.1875 Z M 6.34375 0.1875 "/></g></g></g><g fill="#000000" fill-opacity="1"><g transform="translate(138.054388, 243.752181)"><g><path d="M 6.34375 0.1875 C 5.695312 0.1875 5.066406 0.101562 4.453125 -0.0625 C 3.835938 -0.226562 3.273438 -0.472656 2.765625 -0.796875 C 2.253906 -1.117188 1.832031 -1.519531 1.5 -2 C 1.164062 -2.488281 0.96875 -3.0625 0.90625 -3.71875 L 3.59375 -3.71875 C 3.675781 -3.320312 3.84375 -2.988281 4.09375 -2.71875 C 4.351562 -2.445312 4.675781 -2.238281 5.0625 -2.09375 C 5.445312 -1.945312 5.875 -1.875 6.34375 -1.875 C 6.820312 -1.875 7.257812 -1.929688 7.65625 -2.046875 C 8.050781 -2.171875 8.367188 -2.351562 8.609375 -2.59375 C 8.847656 -2.84375 8.96875 -3.148438 8.96875 -3.515625 C 8.96875 -3.847656 8.867188 -4.117188 8.671875 -4.328125 C 8.472656 -4.535156 8.207031 -4.707031 7.875 -4.84375 C 7.550781 -4.976562 7.179688 -5.085938 6.765625 -5.171875 L 4.515625 -5.625 C 3.523438 -5.8125 2.742188 -6.203125 2.171875 -6.796875 C 1.597656 -7.390625 1.300781 -8.1875 1.28125 -9.1875 C 1.269531 -10 1.484375 -10.703125 1.921875 -11.296875 C 2.367188 -11.898438 2.972656 -12.363281 3.734375 -12.6875 C 4.492188 -13.007812 5.34375 -13.171875 6.28125 -13.171875 C 7.40625 -13.171875 8.347656 -12.992188 9.109375 -12.640625 C 9.878906 -12.296875 10.460938 -11.820312 10.859375 -11.21875 C 11.253906 -10.625 11.457031 -9.960938 11.46875 -9.234375 L 8.84375 -9.234375 C 8.789062 -9.691406 8.648438 -10.054688 8.421875 -10.328125 C 8.191406 -10.597656 7.898438 -10.789062 7.546875 -10.90625 C 7.191406 -11.03125 6.785156 -11.09375 6.328125 -11.09375 C 5.984375 -11.09375 5.664062 -11.050781 5.375 -10.96875 C 5.09375 -10.894531 4.851562 -10.785156 4.65625 -10.640625 C 4.457031 -10.503906 4.300781 -10.335938 4.1875 -10.140625 C 4.082031 -9.953125 4.03125 -9.738281 4.03125 -9.5 C 4.03125 -9.113281 4.15625 -8.800781 4.40625 -8.5625 C 4.65625 -8.332031 5.128906 -8.144531 5.828125 -8 L 8.0625 -7.546875 C 8.851562 -7.390625 9.484375 -7.15625 9.953125 -6.84375 C 10.429688 -6.539062 10.785156 -6.195312 11.015625 -5.8125 C 11.253906 -5.425781 11.410156 -5.035156 11.484375 -4.640625 C 11.554688 -4.242188 11.59375 -3.875 11.59375 -3.53125 C 11.59375 -2.832031 11.375 -2.203125 10.9375 -1.640625 C 10.5 -1.078125 9.882812 -0.628906 9.09375 -0.296875 C 8.3125 0.0234375 7.394531 0.1875 6.34375 0.1875 Z M 6.34375 0.1875 "/></g></g></g><g fill="#000000" fill-opacity="1"><g transform="translate(150.537476, 243.752181)"><g/></g></g><g fill="#000000" fill-opacity="1"><g transform="translate(154.353508, 243.752181)"><g><path d="M 1.453125 -13.015625 L 10.3125 -13.015625 L 10.3125 -10.8125 L 4.109375 -10.8125 L 4.109375 -7.546875 L 9.484375 -7.546875 L 9.484375 -5.40625 L 4.109375 -5.40625 L 4.109375 0 L 1.453125 0 Z M 1.453125 -13.015625 "/></g></g></g><g fill="#000000" fill-opacity="1"><g transform="translate(165.396587, 243.752181)"><g><path d="M 6.859375 0.1875 C 5.628906 0.1875 4.566406 -0.0820312 3.671875 -0.625 C 2.773438 -1.164062 2.082031 -1.929688 1.59375 -2.921875 C 1.101562 -3.910156 0.859375 -5.097656 0.859375 -6.484375 C 0.859375 -7.867188 1.101562 -9.0625 1.59375 -10.0625 C 2.09375 -11.0625 2.789062 -11.832031 3.6875 -12.375 C 4.59375 -12.914062 5.648438 -13.1875 6.859375 -13.1875 C 8.066406 -13.1875 9.117188 -12.914062 10.015625 -12.375 C 10.910156 -11.84375 11.601562 -11.070312 12.09375 -10.0625 C 12.582031 -9.0625 12.828125 -7.867188 12.828125 -6.484375 C 12.828125 -5.109375 12.582031 -3.921875 12.09375 -2.921875 C 11.613281 -1.929688 10.925781 -1.164062 10.03125 -0.625 C 9.132812 -0.0820312 8.078125 0.1875 6.859375 0.1875 Z M 6.859375 -1.984375 C 7.503906 -1.984375 8.054688 -2.132812 8.515625 -2.4375 C 8.984375 -2.738281 9.34375 -3.21875 9.59375 -3.875 C 9.84375 -4.53125 9.96875 -5.382812 9.96875 -6.4375 C 9.96875 -7.53125 9.835938 -8.410156 9.578125 -9.078125 C 9.328125 -9.753906 8.96875 -10.25 8.5 -10.5625 C 8.039062 -10.875 7.492188 -11.03125 6.859375 -11.03125 C 6.234375 -11.03125 5.6875 -10.875 5.21875 -10.5625 C 4.75 -10.25 4.382812 -9.753906 4.125 -9.078125 C 3.875 -8.398438 3.75 -7.519531 3.75 -6.4375 C 3.75 -5.375 3.875 -4.515625 4.125 -3.859375 C 4.382812 -3.210938 4.75 -2.738281 5.21875 -2.4375 C 5.6875 -2.132812 6.234375 -1.984375 6.859375 -1.984375 Z M 6.859375 -1.984375 "/></g></g></g><g fill="#000000" fill-opacity="1"><g transform="translate(179.085676, 243.752181)"><g><path d="M 11.5625 0 L 8.828125 0 L 6.71875 -5.015625 L 4.078125 -5.015625 L 4.078125 0 L 1.453125 0 L 1.453125 -13.015625 L 6.953125 -13.015625 C 7.984375 -13.015625 8.828125 -12.847656 9.484375 -12.515625 C 10.148438 -12.191406 10.640625 -11.734375 10.953125 -11.140625 C 11.265625 -10.554688 11.421875 -9.882812 11.421875 -9.125 C 11.421875 -8.4375 11.3125 -7.859375 11.09375 -7.390625 C 10.882812 -6.921875 10.609375 -6.53125 10.265625 -6.21875 C 9.921875 -5.90625 9.546875 -5.648438 9.140625 -5.453125 Z M 6.484375 -7.03125 C 7.179688 -7.03125 7.734375 -7.21875 8.140625 -7.59375 C 8.554688 -7.976562 8.765625 -8.46875 8.765625 -9.0625 C 8.765625 -9.664062 8.566406 -10.140625 8.171875 -10.484375 C 7.773438 -10.828125 7.273438 -11 6.671875 -11 L 4.078125 -11 L 4.078125 -7.03125 Z M 6.484375 -7.03125 "/></g></g></g><g fill="#000000" fill-opacity="1"><g transform="translate(191.613763, 243.752181)"><g/></g></g><g fill="#000000" fill-opacity="1"><g transform="translate(195.429795, 243.752181)"><g><path d="M 6.765625 -13.1875 C 7.734375 -13.1875 8.597656 -12.988281 9.359375 -12.59375 C 10.128906 -12.207031 10.75 -11.675781 11.21875 -11 C 11.695312 -10.320312 11.976562 -9.554688 12.0625 -8.703125 L 9.3125 -8.703125 C 9.226562 -9.148438 9.070312 -9.550781 8.84375 -9.90625 C 8.625 -10.257812 8.332031 -10.535156 7.96875 -10.734375 C 7.613281 -10.929688 7.179688 -11.03125 6.671875 -11.03125 C 6.066406 -11.03125 5.546875 -10.882812 5.109375 -10.59375 C 4.671875 -10.300781 4.332031 -9.828125 4.09375 -9.171875 C 3.863281 -8.515625 3.75 -7.648438 3.75 -6.578125 C 3.75 -4.960938 4.007812 -3.789062 4.53125 -3.0625 C 5.050781 -2.34375 5.765625 -1.984375 6.671875 -1.984375 C 7.179688 -1.984375 7.613281 -2.097656 7.96875 -2.328125 C 8.332031 -2.554688 8.625 -2.859375 8.84375 -3.234375 C 9.070312 -3.617188 9.226562 -4.039062 9.3125 -4.5 L 12.0625 -4.5 C 11.976562 -3.882812 11.828125 -3.296875 11.609375 -2.734375 C 11.390625 -2.171875 11.070312 -1.671875 10.65625 -1.234375 C 10.25 -0.796875 9.722656 -0.445312 9.078125 -0.1875 C 8.441406 0.0625 7.671875 0.1875 6.765625 0.1875 C 5.546875 0.1875 4.492188 -0.09375 3.609375 -0.65625 C 2.734375 -1.226562 2.054688 -2.023438 1.578125 -3.046875 C 1.097656 -4.066406 0.859375 -5.253906 0.859375 -6.609375 C 0.859375 -7.984375 1.09375 -9.160156 1.5625 -10.140625 C 2.039062 -11.117188 2.722656 -11.867188 3.609375 -12.390625 C 4.492188 -12.921875 5.546875 -13.1875 6.765625 -13.1875 Z M 6.765625 -13.1875 "/></g></g></g><g fill="#000000" fill-opacity="1"><g transform="translate(208.353882, 243.752181)"><g><path d="M 6.859375 0.1875 C 5.628906 0.1875 4.566406 -0.0820312 3.671875 -0.625 C 2.773438 -1.164062 2.082031 -1.929688 1.59375 -2.921875 C 1.101562 -3.910156 0.859375 -5.097656 0.859375 -6.484375 C 0.859375 -7.867188 1.101562 -9.0625 1.59375 -10.0625 C 2.09375 -11.0625 2.789062 -11.832031 3.6875 -12.375 C 4.59375 -12.914062 5.648438 -13.1875 6.859375 -13.1875 C 8.066406 -13.1875 9.117188 -12.914062 10.015625 -12.375 C 10.910156 -11.84375 11.601562 -11.070312 12.09375 -10.0625 C 12.582031 -9.0625 12.828125 -7.867188 12.828125 -6.484375 C 12.828125 -5.109375 12.582031 -3.921875 12.09375 -2.921875 C 11.613281 -1.929688 10.925781 -1.164062 10.03125 -0.625 C 9.132812 -0.0820312 8.078125 0.1875 6.859375 0.1875 Z M 6.859375 -1.984375 C 7.503906 -1.984375 8.054688 -2.132812 8.515625 -2.4375 C 8.984375 -2.738281 9.34375 -3.21875 9.59375 -3.875 C 9.84375 -4.53125 9.96875 -5.382812 9.96875 -6.4375 C 9.96875 -7.53125 9.835938 -8.410156 9.578125 -9.078125 C 9.328125 -9.753906 8.96875 -10.25 8.5 -10.5625 C 8.039062 -10.875 7.492188 -11.03125 6.859375 -11.03125 C 6.234375 -11.03125 5.6875 -10.875 5.21875 -10.5625 C 4.75 -10.25 4.382812 -9.753906 4.125 -9.078125 C 3.875 -8.398438 3.75 -7.519531 3.75 -6.4375 C 3.75 -5.375 3.875 -4.515625 4.125 -3.859375 C 4.382812 -3.210938 4.75 -2.738281 5.21875 -2.4375 C 5.6875 -2.132812 6.234375 -1.984375 6.859375 -1.984375 Z M 6.859375 -1.984375 "/></g></g></g><g fill="#000000" fill-opacity="1"><g transform="translate(222.042971, 243.752181)"><g><path d="M 1.453125 0 L 1.453125 -13.015625 L 5.28125 -13.015625 L 8.25 -3.734375 L 11.265625 -13.015625 L 15.0625 -13.015625 L 15.0625 0 L 12.40625 0 L 12.40625 -9.953125 L 9.28125 0 L 7.21875 0 L 4.109375 -9.90625 L 4.109375 0 Z M 1.453125 0 "/></g></g></g><g fill="#000000" fill-opacity="1"><g transform="translate(238.558088, 243.752181)"><g><path d="M 1.453125 0 L 1.453125 -13.015625 L 6.25 -13.015625 C 7.195312 -13.015625 8.046875 -12.847656 8.796875 -12.515625 C 9.546875 -12.191406 10.132812 -11.710938 10.5625 -11.078125 C 11 -10.441406 11.21875 -9.664062 11.21875 -8.75 C 11.21875 -7.882812 11.023438 -7.144531 10.640625 -6.53125 C 10.265625 -5.914062 9.726562 -5.445312 9.03125 -5.125 C 8.332031 -4.800781 7.519531 -4.640625 6.59375 -4.640625 L 4.109375 -4.640625 L 4.109375 0 Z M 4.078125 -6.671875 L 6.515625 -6.671875 C 7.171875 -6.671875 7.707031 -6.882812 8.125 -7.3125 C 8.550781 -7.738281 8.765625 -8.265625 8.765625 -8.890625 C 8.765625 -9.535156 8.539062 -10.046875 8.09375 -10.421875 C 7.65625 -10.804688 7.117188 -11 6.484375 -11 L 4.078125 -11 Z M 4.078125 -6.671875 "/></g></g></g><g fill="#000000" fill-opacity="1"><g transform="translate(250.30317, 243.752181)"><g><path d="M 11.875 -4.953125 C 11.875 -3.910156 11.703125 -3.003906 11.359375 -2.234375 C 11.015625 -1.460938 10.457031 -0.863281 9.6875 -0.4375 C 8.925781 -0.0195312 7.914062 0.1875 6.65625 0.1875 C 5.394531 0.1875 4.378906 -0.0234375 3.609375 -0.453125 C 2.847656 -0.878906 2.296875 -1.476562 1.953125 -2.25 C 1.617188 -3.03125 1.453125 -3.960938 1.453125 -5.046875 L 1.453125 -13.015625 L 4.125 -13.015625 L 4.125 -4.84375 C 4.125 -3.875 4.359375 -3.164062 4.828125 -2.71875 C 5.296875 -2.269531 5.90625 -2.046875 6.65625 -2.046875 C 7.15625 -2.046875 7.597656 -2.144531 7.984375 -2.34375 C 8.367188 -2.539062 8.671875 -2.84375 8.890625 -3.25 C 9.109375 -3.664062 9.21875 -4.195312 9.21875 -4.84375 L 9.21875 -13.015625 L 11.875 -13.015625 Z M 11.875 -4.953125 "/></g></g></g><g fill="#000000" fill-opacity="1"><g transform="translate(263.335265, 243.752181)"><g><path d="M 0.34375 -10.671875 L 0.34375 -13.015625 L 10.75 -13.015625 L 10.75 -10.671875 L 6.90625 -10.671875 L 6.90625 0 L 4.28125 0 L 4.28125 -10.671875 Z M 0.34375 -10.671875 "/></g></g></g><g fill="#000000" fill-opacity="1"><g transform="translate(274.423342, 243.752181)"><g><path d="M 1.453125 -13.015625 L 4.078125 -13.015625 L 4.078125 0 L 1.453125 0 Z M 1.453125 -13.015625 "/></g></g></g><g fill="#000000" fill-opacity="1"><g transform="translate(279.958368, 243.752181)"><g><path d="M 10 -13.015625 L 12.625 -13.015625 L 12.625 0 L 10.265625 0 L 4.078125 -8.953125 L 4.078125 0 L 1.453125 0 L 1.453125 -13.015625 L 4.0625 -13.015625 L 10 -4.40625 Z M 10 -13.015625 "/></g></g></g><g fill="#000000" fill-opacity="1"><g transform="translate(294.034462, 243.752181)"><g><path d="M 6.71875 0.1875 C 5.53125 0.1875 4.492188 -0.0820312 3.609375 -0.625 C 2.734375 -1.175781 2.054688 -1.945312 1.578125 -2.9375 C 1.097656 -3.9375 0.859375 -5.113281 0.859375 -6.46875 C 0.859375 -7.851562 1.109375 -9.046875 1.609375 -10.046875 C 2.109375 -11.054688 2.804688 -11.832031 3.703125 -12.375 C 4.609375 -12.914062 5.660156 -13.1875 6.859375 -13.1875 C 7.640625 -13.1875 8.347656 -13.0625 8.984375 -12.8125 C 9.617188 -12.570312 10.171875 -12.238281 10.640625 -11.8125 C 11.109375 -11.382812 11.476562 -10.898438 11.75 -10.359375 C 12.019531 -9.828125 12.164062 -9.273438 12.1875 -8.703125 L 9.421875 -8.703125 C 9.335938 -9.117188 9.179688 -9.492188 8.953125 -9.828125 C 8.722656 -10.171875 8.425781 -10.445312 8.0625 -10.65625 C 7.707031 -10.863281 7.285156 -10.96875 6.796875 -10.96875 C 6.222656 -10.96875 5.703125 -10.816406 5.234375 -10.515625 C 4.765625 -10.222656 4.394531 -9.753906 4.125 -9.109375 C 3.851562 -8.460938 3.71875 -7.609375 3.71875 -6.546875 C 3.71875 -5.679688 3.804688 -4.960938 3.984375 -4.390625 C 4.160156 -3.828125 4.398438 -3.378906 4.703125 -3.046875 C 5.003906 -2.710938 5.347656 -2.476562 5.734375 -2.34375 C 6.117188 -2.207031 6.507812 -2.140625 6.90625 -2.140625 C 7.289062 -2.140625 7.632812 -2.203125 7.9375 -2.328125 C 8.238281 -2.453125 8.5 -2.613281 8.71875 -2.8125 C 8.9375 -3.019531 9.109375 -3.242188 9.234375 -3.484375 C 9.359375 -3.734375 9.441406 -3.976562 9.484375 -4.21875 L 9.578125 -5 L 6.890625 -5 L 6.890625 -6.828125 L 12.328125 -6.796875 L 12.328125 0 L 10.546875 0 L 10.546875 -1.703125 C 10.316406 -1.410156 10.035156 -1.117188 9.703125 -0.828125 C 9.378906 -0.535156 8.976562 -0.289062 8.5 -0.09375 C 8.019531 0.09375 7.425781 0.1875 6.71875 0.1875 Z M 6.71875 0.1875 "/></g></g></g><g fill="#000000" fill-opacity="1"><g transform="translate(75.224955, 262.502179)"><g><path d="M 1.453125 0 L 1.453125 -13.015625 L 10.390625 -13.015625 L 10.390625 -10.796875 L 4.09375 -10.796875 L 4.09375 -7.640625 L 9.5625 -7.640625 L 9.5625 -5.46875 L 4.078125 -5.46875 L 4.078125 -2.234375 L 10.484375 -2.234375 L 10.484375 0 Z M 1.453125 0 "/></g></g></g><g fill="#000000" fill-opacity="1"><g transform="translate(86.646032, 262.502179)"><g><path d="M 0.859375 -6.484375 C 0.859375 -7.867188 1.101562 -9.0625 1.59375 -10.0625 C 2.09375 -11.070312 2.789062 -11.84375 3.6875 -12.375 C 4.59375 -12.914062 5.648438 -13.1875 6.859375 -13.1875 C 8.078125 -13.1875 9.128906 -12.914062 10.015625 -12.375 C 10.910156 -11.84375 11.601562 -11.070312 12.09375 -10.0625 C 12.59375 -9.0625 12.84375 -7.867188 12.84375 -6.484375 C 12.84375 -5.296875 12.660156 -4.25 12.296875 -3.34375 C 11.941406 -2.445312 11.398438 -1.695312 10.671875 -1.09375 C 10.816406 -0.726562 11.082031 -0.4375 11.46875 -0.21875 C 11.863281 -0.0078125 12.304688 0.0976562 12.796875 0.109375 L 12.796875 2.21875 C 12.222656 2.21875 11.679688 2.164062 11.171875 2.0625 C 10.671875 1.96875 10.1875 1.765625 9.71875 1.453125 C 9.25 1.148438 8.789062 0.679688 8.34375 0.046875 C 8.039062 0.0859375 7.773438 0.117188 7.546875 0.140625 C 7.328125 0.171875 7.097656 0.1875 6.859375 0.1875 C 5.640625 0.1875 4.582031 -0.078125 3.6875 -0.609375 C 2.789062 -1.140625 2.09375 -1.898438 1.59375 -2.890625 C 1.101562 -3.890625 0.859375 -5.085938 0.859375 -6.484375 Z M 3.75 -6.4375 C 3.75 -4.851562 4.019531 -3.710938 4.5625 -3.015625 C 5.113281 -2.328125 5.878906 -1.984375 6.859375 -1.984375 C 7.835938 -1.984375 8.597656 -2.328125 9.140625 -3.015625 C 9.691406 -3.710938 9.96875 -4.859375 9.96875 -6.453125 C 9.96875 -8.066406 9.691406 -9.234375 9.140625 -9.953125 C 8.597656 -10.671875 7.835938 -11.03125 6.859375 -11.03125 C 5.878906 -11.03125 5.113281 -10.664062 4.5625 -9.9375 C 4.019531 -9.21875 3.75 -8.050781 3.75 -6.4375 Z M 3.75 -6.4375 "/></g></g></g><g fill="#000000" fill-opacity="1"><g transform="translate(100.560124, 262.502179)"><g><path d="M 11.875 -4.953125 C 11.875 -3.910156 11.703125 -3.003906 11.359375 -2.234375 C 11.015625 -1.460938 10.457031 -0.863281 9.6875 -0.4375 C 8.925781 -0.0195312 7.914062 0.1875 6.65625 0.1875 C 5.394531 0.1875 4.378906 -0.0234375 3.609375 -0.453125 C 2.847656 -0.878906 2.296875 -1.476562 1.953125 -2.25 C 1.617188 -3.03125 1.453125 -3.960938 1.453125 -5.046875 L 1.453125 -13.015625 L 4.125 -13.015625 L 4.125 -4.84375 C 4.125 -3.875 4.359375 -3.164062 4.828125 -2.71875 C 5.296875 -2.269531 5.90625 -2.046875 6.65625 -2.046875 C 7.15625 -2.046875 7.597656 -2.144531 7.984375 -2.34375 C 8.367188 -2.539062 8.671875 -2.84375 8.890625 -3.25 C 9.109375 -3.664062 9.21875 -4.195312 9.21875 -4.84375 L 9.21875 -13.015625 L 11.875 -13.015625 Z M 11.875 -4.953125 "/></g></g></g><g fill="#000000" fill-opacity="1"><g transform="translate(113.592219, 262.502179)"><g><path d="M 1.453125 -13.015625 L 4.078125 -13.015625 L 4.078125 0 L 1.453125 0 Z M 1.453125 -13.015625 "/></g></g></g><g fill="#000000" fill-opacity="1"><g transform="translate(119.127257, 262.502179)"><g><path d="M 0.34375 -10.671875 L 0.34375 -13.015625 L 10.75 -13.015625 L 10.75 -10.671875 L 6.90625 -10.671875 L 6.90625 0 L 4.28125 0 L 4.28125 -10.671875 Z M 0.34375 -10.671875 "/></g></g></g><g fill="#000000" fill-opacity="1"><g transform="translate(130.215334, 262.502179)"><g><path d="M 11.84375 -13.015625 L 7.3125 -5.46875 L 7.3125 0 L 4.6875 0 L 4.6875 -5.484375 L 0.171875 -13.015625 L 3.015625 -13.015625 L 6.015625 -7.734375 L 8.96875 -13.015625 Z M 11.84375 -13.015625 "/></g></g></g><g clip-path="url(#6d208c1f22)"><path fill="#000000" d="M 414.757812 123.273438 L 414.757812 84.796875 C 414.757812 84.492188 414.785156 84.191406 414.84375 83.894531 C 414.90625 83.59375 414.992188 83.304688 415.105469 83.027344 C 415.222656 82.746094 415.363281 82.476562 415.53125 82.226562 C 415.699219 81.972656 415.890625 81.738281 416.105469 81.523438 C 416.320312 81.308594 416.550781 81.117188 416.804688 80.949219 C 417.054688 80.78125 417.320312 80.636719 417.597656 80.519531 C 417.878906 80.40625 418.167969 80.316406 418.460938 80.257812 C 418.757812 80.199219 419.058594 80.167969 419.359375 80.167969 L 422.558594 80.167969 C 422.859375 80.167969 423.160156 80.199219 423.457031 80.257812 C 423.753906 80.316406 424.039062 80.40625 424.320312 80.519531 C 424.597656 80.636719 424.863281 80.78125 425.117188 80.949219 C 425.367188 81.117188 425.597656 81.308594 425.8125 81.523438 C 426.027344 81.738281 426.21875 81.972656 426.386719 82.226562 C 426.554688 82.476562 426.695312 82.746094 426.8125 83.027344 C 426.925781 83.304688 427.015625 83.59375 427.074219 83.894531 C 427.132812 84.191406 427.160156 84.492188 427.160156 84.796875 L 427.160156 123.273438 C 427.160156 123.578125 427.132812 123.878906 427.074219 124.175781 C 427.015625 124.472656 426.925781 124.761719 426.8125 125.042969 C 426.695312 125.324219 426.554688 125.589844 426.386719 125.84375 C 426.21875 126.097656 426.027344 126.332031 425.8125 126.546875 C 425.597656 126.761719 425.367188 126.953125 425.117188 127.121094 C 424.863281 127.289062 424.597656 127.433594 424.320312 127.546875 C 424.039062 127.664062 423.753906 127.753906 423.457031 127.8125 C 423.160156 127.871094 422.859375 127.898438 422.558594 127.898438 L 419.359375 127.898438 C 419.058594 127.898438 418.757812 127.871094 418.460938 127.8125 C 418.167969 127.753906 417.878906 127.664062 417.597656 127.546875 C 417.320312 127.433594 417.054688 127.289062 416.804688 127.121094 C 416.550781 126.953125 416.320312 126.761719 416.105469 126.546875 C 415.890625 126.332031 415.699219 126.097656 415.53125 125.84375 C 415.363281 125.589844 415.222656 125.324219 415.105469 125.042969 C 414.992188 124.761719 414.90625 124.472656 414.84375 124.175781 C 414.785156 123.878906 414.757812 123.578125 414.757812 123.273438 Z M 414.757812 123.273438 " fill-opacity="1" fill-rule="nonzero"/></g><g clip-path="url(#e71cf5f4a5)"><path fill="#000000" d="M 440.101562 110.269531 L 401.816406 110.269531 C 401.515625 110.269531 401.214844 110.238281 400.917969 110.179688 C 400.621094 110.121094 400.335938 110.03125 400.054688 109.914062 C 399.777344 109.800781 399.511719 109.65625 399.257812 109.488281 C 399.007812 109.320312 398.777344 109.128906 398.5625 108.914062 C 398.347656 108.699219 398.15625 108.464844 397.988281 108.210938 C 397.820312 107.960938 397.679688 107.691406 397.5625 107.410156 C 397.449219 107.132812 397.359375 106.84375 397.300781 106.542969 C 397.242188 106.246094 397.214844 105.945312 397.214844 105.640625 L 397.214844 102.429688 C 397.214844 102.125 397.242188 101.824219 397.300781 101.527344 C 397.359375 101.226562 397.449219 100.9375 397.5625 100.65625 C 397.679688 100.375 397.820312 100.109375 397.988281 99.859375 C 398.15625 99.605469 398.347656 99.371094 398.5625 99.15625 C 398.777344 98.941406 399.007812 98.75 399.257812 98.582031 C 399.511719 98.414062 399.777344 98.269531 400.054688 98.152344 C 400.335938 98.035156 400.621094 97.949219 400.917969 97.890625 C 401.214844 97.832031 401.515625 97.800781 401.816406 97.800781 L 440.101562 97.800781 C 440.402344 97.800781 440.703125 97.832031 441 97.890625 C 441.296875 97.949219 441.582031 98.035156 441.863281 98.152344 C 442.140625 98.269531 442.40625 98.414062 442.660156 98.582031 C 442.910156 98.75 443.144531 98.941406 443.355469 99.15625 C 443.570312 99.371094 443.761719 99.605469 443.929688 99.859375 C 444.097656 100.109375 444.238281 100.375 444.355469 100.65625 C 444.46875 100.9375 444.558594 101.226562 444.617188 101.527344 C 444.675781 101.824219 444.703125 102.125 444.703125 102.429688 L 444.703125 105.640625 C 444.703125 105.945312 444.675781 106.246094 444.617188 106.542969 C 444.558594 106.84375 444.46875 107.132812 444.355469 107.410156 C 444.238281 107.691406 444.097656 107.960938 443.929688 108.210938 C 443.761719 108.464844 443.570312 108.699219 443.355469 108.914062 C 443.144531 109.128906 442.910156 109.320312 442.660156 109.488281 C 442.40625 109.65625 442.140625 109.800781 441.863281 109.914062 C 441.582031 110.03125 441.296875 110.121094 441 110.179688 C 440.703125 110.238281 440.402344 110.269531 440.101562 110.269531 Z M 440.101562 110.269531 " fill-opacity="1" fill-rule="nonzero"/></g><g clip-path="url(#ac005c2b31)"><path fill="#004aad" d="M 417.238281 120.066406 L 417.238281 81.589844 C 417.238281 81.285156 417.265625 80.984375 417.328125 80.6875 C 417.386719 80.390625 417.472656 80.101562 417.589844 79.820312 C 417.703125 79.539062 417.847656 79.273438 418.015625 79.019531 C 418.183594 78.765625 418.371094 78.535156 418.585938 78.320312 C 418.800781 78.105469 419.03125 77.910156 419.285156 77.742188 C 419.535156 77.574219 419.800781 77.433594 420.078125 77.316406 C 420.359375 77.199219 420.648438 77.113281 420.945312 77.050781 C 421.238281 76.992188 421.539062 76.964844 421.839844 76.964844 L 425.039062 76.964844 C 425.339844 76.964844 425.640625 76.992188 425.9375 77.050781 C 426.234375 77.113281 426.519531 77.199219 426.800781 77.316406 C 427.078125 77.433594 427.34375 77.574219 427.597656 77.742188 C 427.847656 77.910156 428.082031 78.105469 428.292969 78.320312 C 428.507812 78.535156 428.699219 78.765625 428.867188 79.019531 C 429.035156 79.273438 429.175781 79.539062 429.292969 79.820312 C 429.40625 80.101562 429.496094 80.390625 429.554688 80.6875 C 429.613281 80.984375 429.640625 81.285156 429.640625 81.589844 L 429.640625 120.066406 C 429.640625 120.371094 429.613281 120.671875 429.554688 120.96875 C 429.496094 121.269531 429.40625 121.558594 429.292969 121.839844 C 429.175781 122.117188 429.035156 122.386719 428.867188 122.636719 C 428.699219 122.890625 428.507812 123.125 428.292969 123.339844 C 428.082031 123.554688 427.847656 123.746094 427.597656 123.914062 C 427.34375 124.082031 427.078125 124.226562 426.800781 124.34375 C 426.519531 124.457031 426.234375 124.546875 425.9375 124.605469 C 425.640625 124.664062 425.339844 124.695312 425.039062 124.695312 L 421.839844 124.695312 C 421.539062 124.695312 421.238281 124.664062 420.945312 124.605469 C 420.648438 124.546875 420.359375 124.457031 420.078125 124.34375 C 419.800781 124.226562 419.535156 124.082031 419.285156 123.914062 C 419.03125 123.746094 418.800781 123.554688 418.585938 123.339844 C 418.371094 123.125 418.183594 122.890625 418.015625 122.636719 C 417.847656 122.386719 417.703125 122.117188 417.589844 121.839844 C 417.472656 121.558594 417.386719 121.269531 417.328125 120.96875 C 417.265625 120.671875 417.238281 120.371094 417.238281 120.066406 Z M 417.238281 120.066406 " fill-opacity="1" fill-rule="nonzero"/></g><g clip-path="url(#41cdf0bcbd)"><path fill="#004aad" d="M 442.582031 107.0625 L 404.296875 107.0625 C 403.996094 107.0625 403.695312 107.03125 403.398438 106.972656 C 403.105469 106.914062 402.816406 106.828125 402.535156 106.710938 C 402.257812 106.59375 401.992188 106.453125 401.742188 106.28125 C 401.488281 106.113281 401.257812 105.921875 401.042969 105.707031 C 400.828125 105.492188 400.636719 105.257812 400.46875 105.007812 C 400.300781 104.753906 400.160156 104.488281 400.042969 104.207031 C 399.929688 103.925781 399.839844 103.636719 399.78125 103.339844 C 399.722656 103.039062 399.695312 102.738281 399.695312 102.433594 L 399.695312 99.222656 C 399.695312 98.917969 399.722656 98.617188 399.78125 98.320312 C 399.839844 98.023438 399.929688 97.730469 400.042969 97.453125 C 400.160156 97.171875 400.300781 96.90625 400.46875 96.652344 C 400.636719 96.398438 400.828125 96.164062 401.042969 95.949219 C 401.257812 95.734375 401.488281 95.542969 401.742188 95.375 C 401.992188 95.207031 402.257812 95.0625 402.535156 94.949219 C 402.816406 94.832031 403.105469 94.742188 403.398438 94.683594 C 403.695312 94.625 403.996094 94.59375 404.296875 94.59375 L 442.582031 94.59375 C 442.882812 94.59375 443.183594 94.625 443.480469 94.683594 C 443.777344 94.742188 444.066406 94.832031 444.34375 94.949219 C 444.625 95.0625 444.886719 95.207031 445.140625 95.375 C 445.390625 95.542969 445.625 95.734375 445.835938 95.949219 C 446.050781 96.164062 446.242188 96.398438 446.410156 96.652344 C 446.578125 96.90625 446.71875 97.171875 446.835938 97.453125 C 446.953125 97.730469 447.039062 98.023438 447.097656 98.320312 C 447.15625 98.617188 447.1875 98.917969 447.1875 99.222656 L 447.1875 102.433594 C 447.1875 102.738281 447.15625 103.039062 447.097656 103.339844 C 447.039062 103.636719 446.953125 103.925781 446.835938 104.207031 C 446.71875 104.488281 446.578125 104.753906 446.410156 105.007812 C 446.242188 105.257812 446.050781 105.492188 445.835938 105.707031 C 445.625 105.921875 445.390625 106.113281 445.140625 106.28125 C 444.886719 106.453125 444.625 106.59375 444.34375 106.710938 C 444.066406 106.828125 443.777344 106.914062 443.480469 106.972656 C 443.183594 107.03125 442.882812 107.0625 442.582031 107.0625 Z M 442.582031 107.0625 " fill-opacity="1" fill-rule="nonzero"/></g></svg>